<svg version="1.2" xmlns="http://www.w3.org/2000/svg" viewBox="0 0 2000 2000" width="2000" height="2000"><style>.a{fill:#00324f}.b{fill:#ffa902}</style><path fill-rule="evenodd" class="a" d="m1748.5 1552.9q3.7-5 7.4-10.1-30.1-15.9-61.5-29.3c-29.7 40.2-62.8 77.7-98.9 112 48.4 15.5 95.2 32.8 139.9 52.1 27.6-29.8 53.2-61.3 77-94.3-20.9-10.9-42.2-21.1-63.9-30.4zm-1441-36.7q-9.1 4.4-18.3 8.6c-14.6 6.7-29.6 12.6-44.6 18.5q4.5 6.3 9 12.4c-5.8 2.8-11.6 5.6-17.5 8.3-15.8 7.2-31.9 13.6-48 19.9 23.6 32.8 49.1 64.1 76.4 93.7 44.8-19.2 91.6-36.6 140-52.1-35.3-33.6-67.8-70.2-97-109.3z"/><path fill-rule="evenodd" class="a" d="m1560.8 1419.6v-483.6l-493.3-185.4-273 102.6 74.9-68.9-39.3-274.2c-1.1-7.5-7.5-13-15-13h-44.8c-7.9 0-14.4 6-15.1 13.9l-30.6 368.4-100.6 37.8 36.8-43.8-29.3-231.9c-1.1-7.4-7.5-13-15-13h-35.7c-7.9 0-14.4 6.1-15.1 13.9l-25.5 306.3-101 38v432.9c-145.3 55.7-265.5 132.5-348.3 223.1 237.6-132.3 557.4-213.4 909.1-213.4 351.7 0 671.5 81.1 909.1 213.4-82.8-90.6-203-167.4-348.3-223.1zm-76.3-427.9v401.3c-45.3-14.3-92.7-26.7-141.7-36.9v-140.4l-135.2-51.9v170.1c-45.7-5.5-92.5-9.2-140.1-11.1v-491.5zm-690.1 79.6l120.2-45.2v155.2l-120.2 45.2zm-243.1 91l100.6-37.9v130.1l-100.6 37.8z"/><path fill-rule="evenodd" class="a" d="m1812.4 1583.3c-23.8 33-49.4 64.5-77 94.3-182.7 198.3-444.5 322.5-735.4 322.5-290.9 0-552.7-124.2-735.5-322.5-27.3-29.6-52.8-60.9-76.4-93.7 16.1-6.3 32.2-12.7 48-19.9 5.9-2.7 11.7-5.5 17.5-8.3q-4.5-6.1-9-12.4c15-5.9 30-11.8 44.6-18.5q9.2-4.2 18.3-8.6c29.2 39.1 61.7 75.7 97 109.3 154.9 147.6 364.6 238.2 595.5 238.2 230.8 0 440.5-90.6 595.5-238.2 36.1-34.3 69.2-71.8 98.9-112q31.4 13.4 61.5 29.3-3.7 5.1-7.4 10.1c21.7 9.3 43 19.5 63.9 30.4z"/><path fill-rule="evenodd" class="b" d="m2000 1000.1c0 171-42.9 331.9-118.5 472.6-35.2-26.8-73.5-52-114.6-75.3 61.8-118.9 96.7-254 96.7-397.3 0-476.9-386.6-863.6-863.6-863.6-477 0-863.6 386.7-863.6 863.6 0 143.3 34.9 278.4 96.7 397.3-41.1 23.3-79.4 48.5-114.6 75.3-75.6-140.7-118.5-301.6-118.5-472.6 0-552.3 447.7-1000 1000-1000 552.3 0 1000 447.7 1000 1000z"/></svg>